<svg xmlns="http://www.w3.org/2000/svg" xmlns:xlink="http://www.w3.org/1999/xlink" width="41" height="41" viewBox="0 0 41 41">
  <defs>
    <clipPath id="clip-path">
      <path id="Bounding_box" data-name="Bounding box" d="M0,0H26.831V26.831H0Z" fill="#d9d9d9" style="mix-blend-mode: normal;isolation: isolate"/>
    </clipPath>
  </defs>
  <g id="Group_13" data-name="Group 13" transform="translate(-398 -6934)">
    <g id="call_log" transform="translate(405 6941)" clip-path="url(#clip-path)" style="mix-blend-mode: normal;isolation: isolate">
      <path id="call_log-2" data-name="call_log" d="M11.18,0H22.36V2.236H11.18Zm0,4.472H22.36V6.708H11.18Zm0,4.472H22.36V11.18H11.18Zm.866,11.892a20.65,20.65,0,0,1-6.2-4.318,20.652,20.652,0,0,1-4.318-6.2A16.782,16.782,0,0,1,0,3.41,1.146,1.146,0,0,1,1.174,2.236H5.7a1.04,1.04,0,0,1,.7.266,1.021,1.021,0,0,1,.363.629L7.49,7.043a1.972,1.972,0,0,1-.028.755,1.176,1.176,0,0,1-.307.531L4.444,11.068a13.519,13.519,0,0,0,1.328,2,19.657,19.657,0,0,0,1.691,1.859,19.638,19.638,0,0,0,1.817,1.607,17.66,17.66,0,0,0,2.012,1.356l2.627-2.627a1.566,1.566,0,0,1,.657-.377,1.8,1.8,0,0,1,.8-.07l3.857.783a1.294,1.294,0,0,1,.643.405.984.984,0,0,1,.251.657v4.528A1.146,1.146,0,0,1,18.95,22.36,16.782,16.782,0,0,1,12.046,20.836ZM5.227,7.1,4.751,4.472H2.264q.14,1.146.391,2.264a12.245,12.245,0,0,0,.727,2.208ZM15.61,19.7a13.641,13.641,0,0,0,2.278.363V17.608l-2.627-.531L13.388,18.95A13.883,13.883,0,0,0,15.61,19.7Z" transform="translate(2.236 2.236)" fill="#de58ff" style="mix-blend-mode: normal;isolation: isolate"/>
    </g>
    <path id="Rectangle_12346" data-name="Rectangle 12346" d="M33,0a8,8,0,0,1,8,8V33a8,8,0,0,1-8,8H8a8,8,0,0,1-8-8V8A8,8,0,0,1,8,0Z" transform="translate(398 6934)" fill="rgba(222,88,255,0.18)" style="mix-blend-mode: normal;isolation: isolate"/>
  </g>
</svg>
